<?xml version="1.0" standalone="no"?>
<!DOCTYPE svg PUBLIC "-//W3C//DTD SVG 20010904//EN"
 "http://www.w3.org/TR/2001/REC-SVG-20010904/DTD/svg10.dtd">
<svg version="1.0" xmlns="http://www.w3.org/2000/svg"
 width="740.000000pt" height="740.000000pt" viewBox="0 0 740.000000 740.000000"
 preserveAspectRatio="xMidYMid meet">

<g transform="translate(0.000000,740.000000) scale(0.100000,-0.100000)"
fill="#000000" stroke="none">
<path d="M2005 4643 c-90 -20 -166 -77 -202 -151 -24 -50 -28 -69 -28 -147 0
-107 13 -136 89 -207 l51 -47 -2 -69 c-3 -84 17 -121 90 -166 l47 -29 47 18
c63 23 81 40 109 100 29 62 30 82 2 104 -20 17 -18 48 3 36 5 -4 9 10 9 30 0
27 8 44 29 66 54 54 103 31 126 -59 16 -61 9 -99 -21 -119 -29 -19 -30 -38 -5
-79 17 -28 25 -32 82 -37 56 -6 65 -5 87 15 28 26 61 93 62 124 0 11 -13 41
-30 67 -35 56 -38 94 -10 139 37 61 16 151 -49 213 -30 27 -38 30 -135 35
-119 7 -142 17 -186 87 -16 25 -37 51 -47 58 -21 15 -89 25 -118 18z"/>
<path d="M2989 4435 c-60 -33 -83 -122 -43 -167 17 -19 20 -29 13 -53 -10 -32
-3 -82 13 -102 6 -7 21 -13 34 -13 19 0 24 -5 24 -25 0 -25 -19 -76 -38 -103
-5 -8 -33 -22 -63 -31 -99 -33 -71 -54 81 -65 106 -8 227 5 289 30 40 16 55
34 27 34 -14 0 -95 50 -148 90 -14 11 -33 41 -42 66 l-15 45 34 30 c68 60 55
116 -40 170 -48 27 -54 34 -57 67 -3 43 -26 51 -69 27z"/>
<path d="M3400 3906 c0 -2 7 -9 15 -16 13 -11 14 -10 9 4 -5 14 -24 23 -24 12z"/>
<path d="M3361 3788 c-1 -11 -14 -21 -37 -27 -19 -5 -51 -21 -69 -35 -38 -29
-60 -34 -51 -11 8 21 0 19 -23 -6 -13 -14 -27 -20 -40 -16 -12 3 -21 2 -21 -2
0 -8 -91 -41 -114 -41 -9 0 -13 -6 -10 -14 3 -9 -5 -15 -25 -19 -18 -4 -31
-13 -31 -22 0 -9 -9 -15 -24 -15 -13 0 -33 -3 -43 -6 -15 -5 -16 -4 -3 6 12 9
9 10 -15 4 -16 -4 -48 -10 -70 -14 l-40 -7 39 -2 c34 -1 45 -15 13 -16 -35 -1
-76 -18 -80 -33 -4 -14 -6 -13 -12 6 -9 27 -20 28 -43 2 l-17 -21 -7 23 c-4
15 -6 6 -7 -28 -1 -27 8 -78 20 -112 12 -36 18 -73 15 -87 l-6 -24 -57 40
c-45 31 -65 39 -93 37 -49 -4 -45 -27 10 -57 91 -48 121 -71 116 -89 -4 -11 6
-25 29 -42 l34 -25 1 -126 c0 -80 5 -143 15 -175 17 -59 78 -127 129 -144 22
-7 36 -18 36 -28 9 -314 -24 -730 -86 -1086 -29 -161 -28 -166 27 -166 32 0
91 71 137 165 41 81 50 122 57 245 8 138 28 237 71 362 20 57 47 137 59 178
18 60 24 70 28 50 7 -30 40 -418 62 -725 22 -304 18 -285 64 -285 l38 0 33 98
c26 78 33 118 38 208 l5 111 -34 -4 -34 -4 25 20 c14 12 31 26 38 31 6 6 12
31 12 55 0 24 9 90 20 147 11 57 26 144 34 193 l14 90 -39 175 c-21 96 -43
207 -49 245 -11 75 -19 336 -10 332 3 -1 18 6 33 16 16 10 27 13 27 6 0 -25
42 -249 57 -302 15 -55 64 -137 81 -137 5 0 15 11 22 25 7 14 20 25 29 25 21
-1 59 -31 46 -36 -5 -3 -28 -13 -50 -23 l-40 -19 90 -1 c50 0 101 2 115 6 24
7 23 8 -9 13 -44 6 -51 26 -13 33 16 3 33 14 37 24 11 27 14 182 4 189 -5 3
-46 7 -91 9 -59 3 -89 0 -110 -11 -17 -9 -32 -13 -35 -10 -3 2 -8 33 -12 67
l-8 62 34 19 c18 11 31 23 28 28 -6 10 44 64 53 55 4 -4 -2 -13 -12 -21 -11
-8 -15 -14 -9 -14 6 0 22 15 37 34 l26 34 -21 24 -20 23 16 -26 c13 -22 13
-28 2 -38 -8 -6 -17 -8 -20 -5 -11 12 -60 13 -79 3 -15 -8 -18 -18 -13 -52 4
-30 3 -38 -4 -27 -9 13 -12 13 -23 1 -11 -11 -11 -14 0 -18 9 -4 6 -11 -9 -24
-27 -23 -36 -25 -18 -2 11 13 12 17 1 21 -10 3 -9 7 3 16 24 17 30 177 9 218
-8 16 -12 34 -8 40 5 8 2 9 -9 5 -14 -5 -17 0 -17 33 0 33 -3 40 -20 40 -17 0
-20 7 -20 40 0 28 -4 40 -15 40 -8 0 -17 15 -21 38 -4 20 -13 46 -21 57 -14
19 -15 18 -9 -9 17 -72 18 -86 7 -86 -6 0 -11 17 -11 39 0 22 -5 41 -12 43 -9
3 -9 12 -1 34 10 27 26 100 37 172 6 38 -12 44 -33 10 l-15 -23 -7 25 c-4 15
-7 18 -8 8z m10 -311 c-10 -9 -11 -8 -5 6 3 10 9 15 12 12 3 -3 0 -11 -7 -18z
m66 -144 c-2 -16 -4 -5 -4 22 0 28 2 40 4 28 2 -13 2 -35 0 -50z m3 -98 c0 -2
-10 -9 -22 -15 -22 -11 -22 -10 -4 4 21 17 26 19 26 11z m65 -4 c3 -5 1 -12
-4 -15 -5 -3 -11 1 -15 9 -6 16 9 21 19 6z m18 -76 c-7 -21 -13 -19 -13 6 0
11 4 18 10 14 5 -3 7 -12 3 -20z m119 -25 c-13 -11 -24 -28 -25 -39 -1 -16 -4
-17 -15 -9 -10 9 -10 13 -1 19 10 6 10 11 -2 25 -9 11 -9 15 -1 10 6 -4 12 -4
12 1 0 4 12 9 27 10 l28 1 -23 -18z m-146 -36 c-4 -9 -9 -15 -11 -12 -3 3 -3
13 1 22 4 9 9 15 11 12 3 -3 3 -13 -1 -22z m29 -14 c3 -5 1 -10 -4 -10 -6 0
-11 5 -11 10 0 6 2 10 4 10 3 0 8 -4 11 -10z"/>
<path d="M3710 3241 c0 -7 -4 -9 -10 -6 -6 4 -7 -1 -3 -11 6 -15 7 -15 15 1 6
9 7 19 4 22 -3 4 -6 1 -6 -6z"/>
<path d="M3902 3218 c-17 -17 -15 -75 2 -81 20 -8 26 2 26 44 0 41 -10 55 -28
37z"/>
<path d="M5185 2834 c-67 -34 -73 -35 -150 -31 -96 6 -119 -3 -169 -73 -44
-62 -72 -65 -148 -17 -50 30 -59 32 -145 32 -74 0 -96 -3 -110 -17 -25 -26
-20 -82 10 -118 23 -27 24 -34 15 -67 -19 -68 29 -162 114 -223 32 -24 51 -30
90 -30 47 0 53 3 113 61 80 77 110 81 176 27 84 -69 158 -77 257 -28 163 82
235 278 156 420 -33 58 -83 100 -118 100 -12 0 -52 -16 -91 -36z"/>
<path d="M2570 2379 c-30 -5 -81 -11 -113 -14 -54 -6 -58 -8 -53 -28 3 -12 9
-63 12 -113 5 -71 3 -101 -10 -140 -16 -47 -21 -52 -118 -109 -116 -68 -214
-104 -306 -112 -68 -6 -81 -17 -62 -52 27 -52 126 -69 179 -32 27 20 35 21 42
10 12 -20 -9 -37 -136 -115 -60 -37 -112 -70 -115 -74 -3 -4 -41 -28 -85 -53
-70 -42 -86 -47 -140 -47 l-60 0 25 -20 c14 -11 30 -20 37 -20 19 0 25 -17 34
-97 4 -41 11 -83 14 -94 7 -21 25 -26 25 -6 0 19 50 117 60 117 4 0 11 -22 15
-50 8 -61 20 -64 29 -8 4 24 19 55 36 75 16 18 33 45 36 58 3 14 11 25 16 25
6 0 52 19 102 43 80 37 99 42 156 41 36 0 73 -4 83 -9 29 -12 19 11 -18 43
-45 40 -35 47 75 53 14 1 35 -2 48 -6 31 -10 29 12 -5 48 -16 16 -22 27 -14
25 15 -3 34 47 27 74 -2 10 1 16 6 15 6 -1 29 25 53 59 42 60 55 102 55 179 0
25 3 35 9 27 6 -10 12 -7 25 12 9 14 14 26 11 26 -3 0 0 6 7 14 7 8 16 12 21
9 4 -2 7 2 7 10 0 8 7 28 15 43 17 33 20 19 5 -20 -5 -14 -6 -26 -1 -26 5 0
12 15 15 33 13 60 36 192 36 205 0 13 0 13 -80 1z m47 -141 c-3 -8 -6 -5 -6 6
-1 11 2 17 5 13 3 -3 4 -12 1 -19z m-80 -118 c-1 -22 -17 -28 -17 -7 0 12 9
27 16 27 2 0 2 -9 1 -20z m-200 -310 c-2 -96 -3 -101 -22 -96 -11 3 -23 6 -27
6 -5 0 -8 30 -8 67 0 59 3 70 27 95 15 15 28 28 29 28 1 0 1 -45 1 -100z"/>
<path d="M2053 2353 c-28 -4 -34 -10 -42 -41 -22 -86 -31 -158 -23 -187 11
-38 26 -39 30 -2 2 15 9 27 15 27 7 0 6 4 -3 10 -13 8 -12 10 3 10 15 0 17 6
11 35 -7 39 2 47 16 13 7 -18 9 -19 9 -5 1 9 5 17 9 17 5 0 18 10 31 21 17 16
26 18 34 10 17 -17 26 -13 24 9 -1 15 -9 20 -32 21 -22 1 -24 3 -8 6 14 3 20
9 16 19 -4 11 6 14 43 15 l49 1 -40 13 c-40 13 -80 16 -142 8z m-56 -195 c-3
-8 -6 -5 -6 6 -1 11 2 17 5 13 3 -3 4 -12 1 -19z"/>
<path d="M2256 2324 c-4 -14 -5 -28 -3 -31 3 -2 8 8 11 23 4 14 5 28 3 31 -3
2 -8 -8 -11 -23z"/>
<path d="M2176 2246 c-4 -16 -5 -31 -1 -34 3 -3 5 3 5 14 0 16 2 17 10 4 11
-18 12 -3 1 25 -7 17 -9 16 -15 -9z"/>
<path d="M2225 2249 c-4 -6 -5 -12 -2 -15 2 -3 7 2 10 11 7 17 1 20 -8 4z"/>
<path d="M2090 2221 c-12 -24 -13 -34 -1 -27 9 6 22 46 15 46 -2 0 -8 -9 -14
-19z"/>
<path d="M5673 2129 c-40 -15 -56 -53 -50 -117 6 -66 44 -165 60 -155 6 4 8 0
4 -10 -3 -10 -2 -17 3 -17 14 0 12 42 -4 62 -7 10 -15 15 -18 12 -7 -6 -7 48
-1 59 3 4 11 3 19 -4 8 -6 14 -8 14 -3 0 5 4 2 10 -6 5 -8 11 -12 13 -10 7 10
-9 180 -19 189 -5 5 -19 5 -31 0z"/>
<path d="M1972 2110 c0 -14 2 -19 5 -12 2 6 2 18 0 25 -3 6 -5 1 -5 -13z"/>
<path d="M2585 2110 c3 -5 8 -10 11 -10 2 0 4 5 4 10 0 6 -5 10 -11 10 -5 0
-7 -4 -4 -10z"/>
<path d="M5822 2065 c-32 -26 -48 -86 -32 -114 8 -14 9 -14 10 2 0 9 5 17 10
17 16 0 12 -34 -10 -86 -11 -26 -19 -52 -16 -58 3 -7 5 -6 5 2 1 6 8 12 16 12
8 0 15 7 15 15 0 8 4 15 8 15 5 0 19 18 31 41 29 50 41 157 20 170 -20 13 -24
12 -57 -16z"/>
<path d="M1961 2060 c0 -14 -2 -38 -5 -55 -5 -28 -5 -28 4 3 7 21 15 30 23 25
9 -5 9 -3 1 8 -6 8 -14 21 -17 29 -3 9 -6 5 -6 -10z"/>
<path d="M3612 1990 c0 -14 2 -19 5 -12 2 6 2 18 0 25 -3 6 -5 1 -5 -13z"/>
<path d="M5502 1998 c-15 -15 -16 -48 -1 -48 7 0 9 -10 7 -24 -4 -17 -1 -23 9
-19 7 3 13 0 13 -7 0 -6 6 -10 13 -7 6 2 23 -4 36 -15 19 -15 26 -16 33 -6 6
9 7 6 3 -8 -5 -18 -2 -22 19 -20 23 1 23 2 -17 46 -23 25 -53 62 -67 82 -28
42 -31 43 -48 26z"/>
<path d="M1941 1954 c0 -11 3 -14 6 -6 3 7 2 16 -1 19 -3 4 -6 -2 -5 -13z"/>
<path d="M3613 1920 c0 -25 2 -35 4 -22 2 12 2 32 0 45 -2 12 -4 2 -4 -23z"/>
<path d="M3652 1940 c0 -14 2 -19 5 -12 2 6 2 18 0 25 -3 6 -5 1 -5 -13z"/>
<path d="M3783 1944 c-19 -20 -16 -38 3 -20 8 9 14 20 12 25 -2 5 -9 3 -15 -5z"/>
<path d="M3828 1930 c3 -14 7 -41 7 -60 0 -34 -1 -35 -38 -35 -27 0 -34 -3
-24 -10 8 -6 14 -21 13 -35 -1 -23 3 -25 50 -28 71 -4 89 17 89 106 0 57 -3
67 -19 70 -10 2 -16 0 -12 -6 3 -5 -8 -12 -24 -14 -33 -5 -39 8 -12 28 15 12
14 13 -10 12 -24 -2 -26 -5 -20 -28z"/>
<path d="M5901 1911 c-26 -27 -45 -54 -43 -61 3 -8 0 -10 -8 -5 -9 5 -11 4 -6
-3 10 -16 55 18 49 36 -3 7 0 10 9 7 8 -3 35 3 60 14 26 11 50 16 54 13 4 -4
4 -2 1 5 -4 6 -2 13 5 15 23 8 -4 28 -38 28 -30 0 -44 -8 -83 -49z"/>
<path d="M3782 1875 c0 -16 2 -22 5 -12 2 9 2 23 0 30 -3 6 -5 -1 -5 -18z"/>
<path d="M3599 1851 c-5 -12 -141 -17 -158 -6 -7 4 -17 3 -22 -2 -17 -17 36
-55 81 -58 23 -2 46 -8 53 -13 32 -24 42 -20 41 17 -1 20 3 42 8 49 6 7 8 15
5 18 -2 3 -7 1 -8 -5z"/>
<path d="M4380 1771 c0 -6 4 -13 10 -16 6 -3 7 1 4 9 -7 18 -14 21 -14 7z"/>
<path d="M4350 1766 c0 -2 8 -10 18 -17 15 -13 16 -12 3 4 -13 16 -21 21 -21
13z"/>
<path d="M3765 1709 c-4 -6 -5 -12 -2 -15 2 -3 7 2 10 11 7 17 1 20 -8 4z"/>
<path d="M4999 1673 c-13 -16 -12 -17 4 -4 9 7 17 15 17 17 0 8 -8 3 -21 -13z"/>
<path d="M3793 1673 c9 -2 23 -2 30 0 6 3 -1 5 -18 5 -16 0 -22 -2 -12 -5z"/>
<path d="M4665 1670 c-3 -5 -2 -10 4 -10 5 0 13 5 16 10 3 6 2 10 -4 10 -5 0
-13 -4 -16 -10z"/>
<path d="M4778 1673 c7 -3 16 -2 19 1 4 3 -2 6 -13 5 -11 0 -14 -3 -6 -6z"/>
<path d="M3571 1634 c0 -11 3 -14 6 -6 3 7 2 16 -1 19 -3 4 -6 -2 -5 -13z"/>
<path d="M2352 1620 c0 -14 2 -19 5 -12 2 6 2 18 0 25 -3 6 -5 1 -5 -13z"/>
<path d="M2385 1620 c-3 -5 -1 -10 4 -10 6 0 11 5 11 10 0 6 -2 10 -4 10 -3 0
-8 -4 -11 -10z"/>
<path d="M4868 1623 c7 -3 16 -2 19 1 4 3 -2 6 -13 5 -11 0 -14 -3 -6 -6z"/>
<path d="M3560 1581 c0 -11 4 -22 9 -25 4 -3 6 6 3 19 -5 30 -12 33 -12 6z"/>
<path d="M2361 1585 c0 -15 27 -111 29 -100 4 29 9 45 19 62 8 14 9 10 6 -22
-4 -33 -3 -35 3 -10 7 28 8 29 20 10 15 -26 16 -11 1 18 -16 29 -14 28 -33 21
-9 -3 -16 -14 -17 -23 0 -9 -7 0 -14 19 -7 19 -14 31 -14 25z"/>
<path d="M4991 1556 c-7 -8 -26 -18 -42 -21 -16 -4 -29 -10 -29 -15 0 -5 -19
-20 -42 -34 -39 -24 -41 -26 -18 -27 17 -2 12 -4 -15 -9 -40 -8 -40 -8 8 -5
36 2 60 11 94 34 25 18 46 31 48 29 1 -2 8 -13 14 -25 17 -33 28 -28 24 10
-10 79 -18 92 -42 63z m-76 -86 c-3 -5 -12 -10 -18 -10 -7 0 -6 4 3 10 19 12
23 12 15 0z"/>
<path d="M3701 1514 c0 -11 3 -14 6 -6 3 7 2 16 -1 19 -3 4 -6 -2 -5 -13z"/>
<path d="M2460 1497 c0 -18 -16 -23 -22 -8 -1 5 -8 3 -15 -4 -9 -10 -6 -12 14
-12 24 0 42 21 29 34 -3 4 -6 -1 -6 -10z"/>
<path d="M3590 1441 c0 -10 19 -25 25 -20 1 2 -3 10 -11 17 -8 7 -14 8 -14 3z"/>
<path d="M2423 1423 c-13 -3 -23 -11 -23 -19 0 -18 34 -26 96 -22 l49 3 -25
16 c-29 19 -66 27 -97 22z"/>
<path d="M2698 1363 c-59 -24 -45 -34 40 -31 67 3 77 5 77 22 0 25 -66 30
-117 9z"/>
<path d="M3624 1364 c3 -9 6 -18 6 -20 0 -2 5 -4 10 -4 6 0 10 9 10 20 0 12
-7 20 -16 20 -11 0 -14 -5 -10 -16z"/>
<path d="M3262 1359 c-52 -7 -82 -22 -82 -41 0 -14 127 -5 141 9 7 7 8 17 3
25 -7 10 -22 12 -62 7z"/>
<path d="M4494 1276 c1 -36 5 -66 9 -66 4 0 3 -9 -3 -21 -7 -11 -9 -23 -6 -27
11 -10 19 7 19 38 0 16 3 27 7 25 9 -6 -7 81 -18 102 -6 9 -9 -9 -8 -51z"/>
<path d="M4390 1132 c0 -4 23 -16 52 -25 53 -17 76 -11 66 15 -6 15 -118 25
-118 10z"/>
</g>
</svg>
